<?xml version="1.0" encoding="UTF-8" standalone="no"?><svg xmlns="http://www.w3.org/2000/svg" xmlns:xlink="http://www.w3.org/1999/xlink" contentStyleType="text/css" height="1277px" preserveAspectRatio="none" style="width:3093px;height:1277px;background:#FFFFFF;" version="1.1" viewBox="0 0 3093 1277" width="3093px" zoomAndPan="magnify"><defs/><g><rect fill="#FDFD96" height="1265.3047" style="stroke:#181818;stroke-width:0.5;" width="62" x="1" y="6"/><text fill="#000000" font-family="sans-serif" font-size="13" font-weight="bold" lengthAdjust="spacing" textLength="44" x="10" y="18.0669">Client</text><rect fill="#A7C7E7" height="1265.3047" style="stroke:#181818;stroke-width:0.5;" width="1321" x="275" y="6"/><text fill="#000000" font-family="sans-serif" font-size="13" font-weight="bold" lengthAdjust="spacing" textLength="86" x="892.5" y="18.0669">Framework</text><rect fill="#FFC0CB" height="1265.3047" style="stroke:#181818;stroke-width:0.5;" width="1489" x="1598" y="6"/><text fill="#000000" font-family="sans-serif" font-size="13" font-weight="bold" lengthAdjust="spacing" textLength="48" x="2318.5" y="18.0669">Kernel</text><rect fill="#FFFFFF" height="1000.6133" style="stroke:#181818;stroke-width:1.0;" width="10" x="403" y="173.3945"/><rect fill="#FFFFFF" height="928.7813" style="stroke:#181818;stroke-width:1.0;" width="10" x="764" y="216.0938"/><rect fill="#FFFFFF" height="209.7969" style="stroke:#181818;stroke-width:1.0;" width="10" x="1755" y="296.625"/><rect fill="#FFFFFF" height="392.125" style="stroke:#181818;stroke-width:1.0;" width="10" x="2081" y="723.6172"/><rect fill="#FFFFFF" height="39.6992" style="stroke:#181818;stroke-width:1.0;" width="10" x="2642" y="1036.3438"/><rect fill="#FFFFFF" height="72.9648" style="stroke:#181818;stroke-width:1.0;" width="10" x="2950" y="923.6797"/><line style="stroke:#181818;stroke-width:0.5;stroke-dasharray:5.0,5.0;" x1="32" x2="32" y1="101.4297" y2="1192.0078"/><line style="stroke:#181818;stroke-width:0.5;stroke-dasharray:5.0,5.0;" x1="408" x2="408" y1="101.4297" y2="1192.0078"/><line style="stroke:#181818;stroke-width:0.5;stroke-dasharray:5.0,5.0;" x1="769" x2="769" y1="101.4297" y2="1192.0078"/><line style="stroke:#181818;stroke-width:0.5;stroke-dasharray:5.0,5.0;" x1="1195" x2="1195" y1="101.4297" y2="1192.0078"/><line style="stroke:#181818;stroke-width:0.5;stroke-dasharray:5.0,5.0;" x1="1477" x2="1477" y1="101.4297" y2="1192.0078"/><line style="stroke:#181818;stroke-width:0.5;stroke-dasharray:5.0,5.0;" x1="1760" x2="1760" y1="101.4297" y2="1192.0078"/><line style="stroke:#181818;stroke-width:0.5;stroke-dasharray:5.0,5.0;" x1="2086" x2="2086" y1="101.4297" y2="1192.0078"/><line style="stroke:#181818;stroke-width:0.5;stroke-dasharray:5.0,5.0;" x1="2284" x2="2284" y1="101.4297" y2="1192.0078"/><line style="stroke:#181818;stroke-width:0.5;stroke-dasharray:5.0,5.0;" x1="2351" x2="2351" y1="101.4297" y2="1192.0078"/><line style="stroke:#181818;stroke-width:0.5;stroke-dasharray:5.0,5.0;" x1="2428" x2="2428" y1="101.4297" y2="1192.0078"/><line style="stroke:#181818;stroke-width:0.5;stroke-dasharray:5.0,5.0;" x1="2647" x2="2647" y1="101.4297" y2="1192.0078"/><line style="stroke:#181818;stroke-width:0.5;stroke-dasharray:5.0,5.0;" x1="2955" x2="2955" y1="101.4297" y2="1192.0078"/><text fill="#000000" font-family="sans-serif" font-size="14" lengthAdjust="spacing" textLength="48" x="5" y="98.1279">Payroll</text><ellipse cx="32" cy="33.6328" fill="#E2E2F0" rx="8" ry="8" style="stroke:#181818;stroke-width:0.5;"/><path d="M32,41.6328 L32,68.6328 M19,49.6328 L45,49.6328 M32,68.6328 L19,83.6328 M32,68.6328 L45,83.6328 " fill="none" style="stroke:#181818;stroke-width:0.5;"/><text fill="#000000" font-family="sans-serif" font-size="14" lengthAdjust="spacing" textLength="48" x="5" y="1204.0029">Payroll</text><ellipse cx="32" cy="1215.8047" fill="#E2E2F0" rx="8" ry="8" style="stroke:#181818;stroke-width:0.5;"/><path d="M32,1223.8047 L32,1250.8047 M19,1231.8047 L45,1231.8047 M32,1250.8047 L19,1265.8047 M32,1250.8047 L45,1265.8047 " fill="none" style="stroke:#181818;stroke-width:0.5;"/><text fill="#000000" font-family="sans-serif" font-size="14" lengthAdjust="spacing" textLength="252" x="279" y="98.1279">EnterPayrollAdjustmentsController</text><ellipse cx="408" cy="69.1328" fill="#E2E2F0" rx="12" ry="12" style="stroke:#181818;stroke-width:0.5;"/><polygon fill="#181818" points="404,57.1328,410,52.1328,408,57.1328,410,62.1328,404,57.1328" style="stroke:#181818;stroke-width:1.0;"/><text fill="#000000" font-family="sans-serif" font-size="14" lengthAdjust="spacing" textLength="252" x="279" y="1204.0029">EnterPayrollAdjustmentsController</text><ellipse cx="408" cy="1223.3047" fill="#E2E2F0" rx="12" ry="12" style="stroke:#181818;stroke-width:0.5;"/><polygon fill="#181818" points="404,1211.3047,410,1206.3047,408,1211.3047,410,1216.3047,404,1211.3047" style="stroke:#181818;stroke-width:1.0;"/><text fill="#000000" font-family="sans-serif" font-size="14" lengthAdjust="spacing" textLength="232" x="650" y="98.1279">EnterPayrollAdjustmentsService</text><ellipse cx="769" cy="69.1328" fill="#E2E2F0" rx="12" ry="12" style="stroke:#181818;stroke-width:0.5;"/><polygon fill="#181818" points="765,57.1328,771,52.1328,769,57.1328,771,62.1328,765,57.1328" style="stroke:#181818;stroke-width:1.0;"/><text fill="#000000" font-family="sans-serif" font-size="14" lengthAdjust="spacing" textLength="232" x="650" y="1204.0029">EnterPayrollAdjustmentsService</text><ellipse cx="769" cy="1223.3047" fill="#E2E2F0" rx="12" ry="12" style="stroke:#181818;stroke-width:0.5;"/><polygon fill="#181818" points="765,1211.3047,771,1206.3047,769,1211.3047,771,1216.3047,765,1211.3047" style="stroke:#181818;stroke-width:1.0;"/><text fill="#000000" font-family="sans-serif" font-size="14" lengthAdjust="spacing" textLength="308" x="1038" y="98.1279">LoadEmployeePositionAdjustmentsService</text><ellipse cx="1195" cy="69.1328" fill="#E2E2F0" rx="12" ry="12" style="stroke:#181818;stroke-width:0.5;"/><polygon fill="#181818" points="1191,57.1328,1197,52.1328,1195,57.1328,1197,62.1328,1191,57.1328" style="stroke:#181818;stroke-width:1.0;"/><text fill="#000000" font-family="sans-serif" font-size="14" lengthAdjust="spacing" textLength="308" x="1038" y="1204.0029">LoadEmployeePositionAdjustmentsService</text><ellipse cx="1195" cy="1223.3047" fill="#E2E2F0" rx="12" ry="12" style="stroke:#181818;stroke-width:0.5;"/><polygon fill="#181818" points="1191,1211.3047,1197,1206.3047,1195,1211.3047,1197,1216.3047,1191,1211.3047" style="stroke:#181818;stroke-width:1.0;"/><text fill="#000000" font-family="sans-serif" font-size="14" lengthAdjust="spacing" textLength="224" x="1362" y="98.1279">LoadEmployeePositionsService</text><ellipse cx="1477" cy="69.1328" fill="#E2E2F0" rx="12" ry="12" style="stroke:#181818;stroke-width:0.5;"/><polygon fill="#181818" points="1473,57.1328,1479,52.1328,1477,57.1328,1479,62.1328,1473,57.1328" style="stroke:#181818;stroke-width:1.0;"/><text fill="#000000" font-family="sans-serif" font-size="14" lengthAdjust="spacing" textLength="224" x="1362" y="1204.0029">LoadEmployeePositionsService</text><ellipse cx="1477" cy="1223.3047" fill="#E2E2F0" rx="12" ry="12" style="stroke:#181818;stroke-width:0.5;"/><polygon fill="#181818" points="1473,1211.3047,1479,1206.3047,1477,1211.3047,1479,1216.3047,1473,1211.3047" style="stroke:#181818;stroke-width:1.0;"/><text fill="#000000" font-family="sans-serif" font-size="14" lengthAdjust="spacing" textLength="310" x="1602" y="98.1279">FindEmployeePositionAdjustmentsRequest</text><ellipse cx="1760" cy="69.1328" fill="#E2E2F0" rx="12" ry="12" style="stroke:#181818;stroke-width:0.5;"/><polygon fill="#181818" points="1756,57.1328,1762,52.1328,1760,57.1328,1762,62.1328,1756,57.1328" style="stroke:#181818;stroke-width:1.0;"/><text fill="#000000" font-family="sans-serif" font-size="14" lengthAdjust="spacing" textLength="310" x="1602" y="1204.0029">FindEmployeePositionAdjustmentsRequest</text><ellipse cx="1760" cy="1223.3047" fill="#E2E2F0" rx="12" ry="12" style="stroke:#181818;stroke-width:0.5;"/><polygon fill="#181818" points="1756,1211.3047,1762,1206.3047,1760,1211.3047,1762,1216.3047,1756,1211.3047" style="stroke:#181818;stroke-width:1.0;"/><text fill="#000000" font-family="sans-serif" font-size="14" lengthAdjust="spacing" textLength="310" x="1928" y="98.1279">FindEmployeePositionAdjustmentsUseCase</text><path d="M2065.5,57.1328 L2065.5,81.1328 M2065.5,69.1328 L2082.5,69.1328 " fill="none" style="stroke:#181818;stroke-width:0.5;"/><ellipse cx="2094.5" cy="69.1328" fill="#E2E2F0" rx="12" ry="12" style="stroke:#181818;stroke-width:0.5;"/><text fill="#000000" font-family="sans-serif" font-size="14" lengthAdjust="spacing" textLength="310" x="1928" y="1204.0029">FindEmployeePositionAdjustmentsUseCase</text><path d="M2065.5,1211.3047 L2065.5,1235.3047 M2065.5,1223.3047 L2082.5,1223.3047 " fill="none" style="stroke:#181818;stroke-width:0.5;"/><ellipse cx="2094.5" cy="1223.3047" fill="#E2E2F0" rx="12" ry="12" style="stroke:#181818;stroke-width:0.5;"/><text fill="#000000" font-family="sans-serif" font-size="14" lengthAdjust="spacing" textLength="54" x="2254" y="98.1279">District</text><ellipse cx="2284" cy="69.1328" fill="#E2E2F0" rx="12" ry="12" style="stroke:#181818;stroke-width:0.5;"/><line style="stroke:#181818;stroke-width:0.5;" x1="2272" x2="2296" y1="83.1328" y2="83.1328"/><text fill="#000000" font-family="sans-serif" font-size="14" lengthAdjust="spacing" textLength="54" x="2254" y="1204.0029">District</text><ellipse cx="2284" cy="1223.3047" fill="#E2E2F0" rx="12" ry="12" style="stroke:#181818;stroke-width:0.5;"/><line style="stroke:#181818;stroke-width:0.5;" x1="2272" x2="2296" y1="1237.3047" y2="1237.3047"/><text fill="#000000" font-family="sans-serif" font-size="14" lengthAdjust="spacing" textLength="49" x="2324" y="98.1279">payroll</text><ellipse cx="2351.5" cy="69.1328" fill="#E2E2F0" rx="12" ry="12" style="stroke:#181818;stroke-width:0.5;"/><line style="stroke:#181818;stroke-width:0.5;" x1="2339.5" x2="2363.5" y1="83.1328" y2="83.1328"/><text fill="#000000" font-family="sans-serif" font-size="14" lengthAdjust="spacing" textLength="49" x="2324" y="1204.0029">payroll</text><ellipse cx="2351.5" cy="1223.3047" fill="#E2E2F0" rx="12" ry="12" style="stroke:#181818;stroke-width:0.5;"/><line style="stroke:#181818;stroke-width:0.5;" x1="2339.5" x2="2363.5" y1="1237.3047" y2="1237.3047"/><text fill="#000000" font-family="sans-serif" font-size="14" lengthAdjust="spacing" textLength="72" x="2389" y="98.1279">Employee</text><ellipse cx="2428" cy="69.1328" fill="#E2E2F0" rx="12" ry="12" style="stroke:#181818;stroke-width:0.5;"/><line style="stroke:#181818;stroke-width:0.5;" x1="2416" x2="2440" y1="83.1328" y2="83.1328"/><text fill="#000000" font-family="sans-serif" font-size="14" lengthAdjust="spacing" textLength="72" x="2389" y="1204.0029">Employee</text><ellipse cx="2428" cy="1223.3047" fill="#E2E2F0" rx="12" ry="12" style="stroke:#181818;stroke-width:0.5;"/><line style="stroke:#181818;stroke-width:0.5;" x1="2416" x2="2440" y1="1237.3047" y2="1237.3047"/><text fill="#000000" font-family="sans-serif" font-size="14" lengthAdjust="spacing" textLength="334" x="2477" y="98.1279">LoadEmployeePositionAdjustmentsRepository</text><path d="M2626.5,57.1328 L2626.5,81.1328 M2626.5,69.1328 L2643.5,69.1328 " fill="none" style="stroke:#181818;stroke-width:0.5;"/><ellipse cx="2655.5" cy="69.1328" fill="#E2E2F0" rx="12" ry="12" style="stroke:#181818;stroke-width:0.5;"/><text fill="#000000" font-family="sans-serif" font-size="14" lengthAdjust="spacing" textLength="334" x="2477" y="1204.0029">LoadEmployeePositionAdjustmentsRepository</text><path d="M2626.5,1211.3047 L2626.5,1235.3047 M2626.5,1223.3047 L2643.5,1223.3047 " fill="none" style="stroke:#181818;stroke-width:0.5;"/><ellipse cx="2655.5" cy="1223.3047" fill="#E2E2F0" rx="12" ry="12" style="stroke:#181818;stroke-width:0.5;"/><text fill="#000000" font-family="sans-serif" font-size="14" lengthAdjust="spacing" textLength="250" x="2827" y="98.1279">LoadEmployeePositionsRepository</text><path d="M2934.5,57.1328 L2934.5,81.1328 M2934.5,69.1328 L2951.5,69.1328 " fill="none" style="stroke:#181818;stroke-width:0.5;"/><ellipse cx="2963.5" cy="69.1328" fill="#E2E2F0" rx="12" ry="12" style="stroke:#181818;stroke-width:0.5;"/><text fill="#000000" font-family="sans-serif" font-size="14" lengthAdjust="spacing" textLength="250" x="2827" y="1204.0029">LoadEmployeePositionsRepository</text><path d="M2934.5,1211.3047 L2934.5,1235.3047 M2934.5,1223.3047 L2951.5,1223.3047 " fill="none" style="stroke:#181818;stroke-width:0.5;"/><ellipse cx="2963.5" cy="1223.3047" fill="#E2E2F0" rx="12" ry="12" style="stroke:#181818;stroke-width:0.5;"/><rect fill="#FFFFFF" height="1000.6133" style="stroke:#181818;stroke-width:1.0;" width="10" x="403" y="173.3945"/><rect fill="#FFFFFF" height="928.7813" style="stroke:#181818;stroke-width:1.0;" width="10" x="764" y="216.0938"/><rect fill="#FFFFFF" height="209.7969" style="stroke:#181818;stroke-width:1.0;" width="10" x="1755" y="296.625"/><rect fill="#FFFFFF" height="392.125" style="stroke:#181818;stroke-width:1.0;" width="10" x="2081" y="723.6172"/><rect fill="#FFFFFF" height="39.6992" style="stroke:#181818;stroke-width:1.0;" width="10" x="2642" y="1036.3438"/><rect fill="#FFFFFF" height="72.9648" style="stroke:#181818;stroke-width:1.0;" width="10" x="2950" y="923.6797"/><polygon fill="#181818" points="391,169.3945,401,173.3945,391,177.3945,395,173.3945" style="stroke:#181818;stroke-width:1.0;"/><line style="stroke:#181818;stroke-width:1.0;" x1="32" x2="397" y1="173.3945" y2="173.3945"/><text fill="#000000" font-family="sans-serif" font-size="13" lengthAdjust="spacing" textLength="217" x="39" y="138.063">findEmployeePayrollAdjustments(</text><text fill="#000000" font-family="sans-serif" font-size="13" lengthAdjust="spacing" textLength="320" x="71" y="153.1958">EnterPayrollAdjustmentsFindCommand command</text><text fill="#000000" font-family="sans-serif" font-size="13" lengthAdjust="spacing" textLength="5" x="39" y="168.3286">)</text><path d="M418,116.4297 L418,186.4297 L809,186.4297 L809,126.4297 L799,116.4297 L418,116.4297 " fill="#FEFFDD" style="stroke:#181818;stroke-width:0.5;"/><path d="M799,116.4297 L799,126.4297 L809,126.4297 L799,116.4297 " fill="#FEFFDD" style="stroke:#181818;stroke-width:0.5;"/><text fill="#000000" font-family="sans-serif" font-size="13" lengthAdjust="spacing" textLength="155" x="424" y="133.4966">Command: data binding</text><text fill="#000000" font-family="sans-serif" font-size="13" lengthAdjust="spacing" textLength="320" x="424" y="148.6294">The command class may inherit the request class</text><text fill="#000000" font-family="sans-serif" font-size="13" lengthAdjust="spacing" textLength="348" x="424" y="163.7622">to avoid data mapping between layers and to develop</text><text fill="#000000" font-family="sans-serif" font-size="13" lengthAdjust="spacing" textLength="370" x="424" y="178.895">application quickly, and it also includes the UI information.</text><polygon fill="#181818" points="752,212.0938,762,216.0938,752,220.0938,756,216.0938" style="stroke:#181818;stroke-width:1.0;"/><line style="stroke:#181818;stroke-width:1.0;" x1="413" x2="758" y1="216.0938" y2="216.0938"/><text fill="#000000" font-family="sans-serif" font-size="13" lengthAdjust="spacing" textLength="287" x="420" y="211.0278">findEmployeePayrollAdjustments(command)</text><path d="M779,196.9609 L779,221.9609 L1019,221.9609 L1019,206.9609 L1009,196.9609 L779,196.9609 " fill="#FEFFDD" style="stroke:#181818;stroke-width:0.5;"/><path d="M1009,196.9609 L1009,206.9609 L1019,206.9609 L1009,196.9609 " fill="#FEFFDD" style="stroke:#181818;stroke-width:0.5;"/><text fill="#000000" font-family="sans-serif" font-size="13" lengthAdjust="spacing" textLength="219" x="785" y="214.0278">Service: transaction management</text><polygon fill="#181818" points="1743,292.625,1753,296.625,1743,300.625,1747,296.625" style="stroke:#181818;stroke-width:1.0;"/><line style="stroke:#181818;stroke-width:1.0;" x1="774" x2="1749" y1="296.625" y2="296.625"/><text fill="#000000" font-family="sans-serif" font-size="13" lengthAdjust="spacing" textLength="377" x="781" y="246.1606">request = new FindEmployeePositionAdjustmentsRequest(</text><text fill="#000000" font-family="sans-serif" font-size="13" lengthAdjust="spacing" textLength="143" x="781" y="261.2935">countyNbr, districtNbr,</text><text fill="#000000" font-family="sans-serif" font-size="13" lengthAdjust="spacing" textLength="228" x="785" y="276.4263">fiscalYear, payrollCyle, payrollType,</text><text fill="#000000" font-family="sans-serif" font-size="13" lengthAdjust="spacing" textLength="91" x="785" y="291.5591">employeeNbr)</text><path d="M1770,232.0938 L1770,302.0938 L2227,302.0938 L2227,242.0938 L2217,232.0938 L1770,232.0938 " fill="#FEFFDD" style="stroke:#181818;stroke-width:0.5;"/><path d="M2217,232.0938 L2217,242.0938 L2227,242.0938 L2217,232.0938 " fill="#FEFFDD" style="stroke:#181818;stroke-width:0.5;"/><text fill="#000000" font-family="sans-serif" font-size="13" lengthAdjust="spacing" textLength="227" x="1776" y="249.1606">Data Mapping, use rich constructor.</text><text fill="#000000" font-family="sans-serif" font-size="13" lengthAdjust="spacing" textLength="436" x="1776" y="264.2935">Making the request class immutable, once constructed successfully,</text><text fill="#000000" font-family="sans-serif" font-size="13" lengthAdjust="spacing" textLength="410" x="1776" y="279.4263">we can be sure that the state is valid and cannot be changed to</text><text fill="#000000" font-family="sans-serif" font-size="13" lengthAdjust="spacing" textLength="117" x="1776" y="294.5591">something invalid.</text><polygon fill="#181818" points="2272,324.7578,2282,328.7578,2272,332.7578,2276,328.7578" style="stroke:#181818;stroke-width:1.0;"/><line style="stroke:#181818;stroke-width:1.0;" x1="1765" x2="2278" y1="328.7578" y2="328.7578"/><text fill="#000000" font-family="sans-serif" font-size="13" lengthAdjust="spacing" textLength="286" x="1772" y="323.6919">district = new District(countyNbr, districtNbr)</text><line style="stroke:#181818;stroke-width:1.0;" x1="1765" x2="1807" y1="357.8906" y2="357.8906"/><line style="stroke:#181818;stroke-width:1.0;" x1="1807" x2="1807" y1="357.8906" y2="370.8906"/><line style="stroke:#181818;stroke-width:1.0;" x1="1766" x2="1807" y1="370.8906" y2="370.8906"/><polygon fill="#181818" points="1776,366.8906,1766,370.8906,1776,374.8906,1772,370.8906" style="stroke:#181818;stroke-width:1.0;"/><text fill="#000000" font-family="sans-serif" font-size="13" lengthAdjust="spacing" textLength="118" x="1772" y="352.8247">setDistrict(district)</text><polygon fill="#181818" points="2339.5,396.0234,2349.5,400.0234,2339.5,404.0234,2343.5,400.0234" style="stroke:#181818;stroke-width:1.0;"/><line style="stroke:#181818;stroke-width:1.0;" x1="1765" x2="2345.5" y1="400.0234" y2="400.0234"/><text fill="#000000" font-family="sans-serif" font-size="13" lengthAdjust="spacing" textLength="369" x="1772" y="394.9575">payroll = new Payroll(fiscalYear, payrollCyle, payrollType)</text><line style="stroke:#181818;stroke-width:1.0;" x1="1765" x2="1807" y1="429.1563" y2="429.1563"/><line style="stroke:#181818;stroke-width:1.0;" x1="1807" x2="1807" y1="429.1563" y2="442.1563"/><line style="stroke:#181818;stroke-width:1.0;" x1="1766" x2="1807" y1="442.1563" y2="442.1563"/><polygon fill="#181818" points="1776,438.1563,1766,442.1563,1776,446.1563,1772,442.1563" style="stroke:#181818;stroke-width:1.0;"/><text fill="#000000" font-family="sans-serif" font-size="13" lengthAdjust="spacing" textLength="116" x="1772" y="424.0903">setPayroll(payroll)</text><polygon fill="#181818" points="2416,467.2891,2426,471.2891,2416,475.2891,2420,471.2891" style="stroke:#181818;stroke-width:1.0;"/><line style="stroke:#181818;stroke-width:1.0;" x1="1765" x2="2422" y1="471.2891" y2="471.2891"/><text fill="#000000" font-family="sans-serif" font-size="13" lengthAdjust="spacing" textLength="273" x="1772" y="466.2231">employee = new Employee(employeeNbr)</text><line style="stroke:#181818;stroke-width:1.0;" x1="1765" x2="1807" y1="505.4219" y2="505.4219"/><line style="stroke:#181818;stroke-width:1.0;" x1="1807" x2="1807" y1="505.4219" y2="518.4219"/><line style="stroke:#181818;stroke-width:1.0;" x1="1760" x2="1807" y1="518.4219" y2="518.4219"/><polygon fill="#181818" points="1770,514.4219,1760,518.4219,1770,522.4219,1766,518.4219" style="stroke:#181818;stroke-width:1.0;"/><text fill="#000000" font-family="sans-serif" font-size="13" lengthAdjust="spacing" textLength="158" x="1772" y="500.356">setEmployee(employee)</text><polygon fill="#181818" points="1183,564.2539,1193,568.2539,1183,572.2539,1187,568.2539" style="stroke:#181818;stroke-width:1.0;"/><line style="stroke:#181818;stroke-width:1.0;" x1="774" x2="1189" y1="568.2539" y2="568.2539"/><text fill="#000000" font-family="sans-serif" font-size="13" lengthAdjust="spacing" textLength="397" x="781" y="563.188">repository = new LoadEmployeePositionAdjustmentsService()</text><path d="M1200,526.4219 L1200,596.4219 L1574,596.4219 L1574,536.4219 L1564,526.4219 L1200,526.4219 " fill="#FEFFDD" style="stroke:#181818;stroke-width:0.5;"/><path d="M1564,526.4219 L1564,536.4219 L1574,536.4219 L1564,526.4219 " fill="#FEFFDD" style="stroke:#181818;stroke-width:0.5;"/><text fill="#000000" font-family="sans-serif" font-size="13" lengthAdjust="spacing" textLength="353" x="1206" y="543.4888">LoadEmployeePositionAdjustmentsService implements</text><text fill="#000000" font-family="sans-serif" font-size="13" lengthAdjust="spacing" textLength="300" x="1206" y="558.6216">LoadEmployeePositionAdjustmentsRepository;</text><text fill="#000000" font-family="sans-serif" font-size="13" lengthAdjust="spacing" textLength="279" x="1206" y="573.7544">LoadEmployeePositionsService implements</text><text fill="#000000" font-family="sans-serif" font-size="13" lengthAdjust="spacing" textLength="221" x="1206" y="588.8872">LoadEmployeePositionsRepository</text><polygon fill="#181818" points="1465,622.0859,1475,626.0859,1465,630.0859,1469,626.0859" style="stroke:#181818;stroke-width:1.0;"/><line style="stroke:#181818;stroke-width:1.0;" x1="774" x2="1471" y1="626.0859" y2="626.0859"/><text fill="#000000" font-family="sans-serif" font-size="13" lengthAdjust="spacing" textLength="377" x="781" y="621.02">positionRepository = new LoadEmployeePositionsService()</text><path d="M600,606.9531 L600,631.9531 L759,631.9531 L759,616.9531 L749,606.9531 L600,606.9531 " fill="#FEFFDD" style="stroke:#181818;stroke-width:0.5;"/><path d="M749,606.9531 L749,616.9531 L759,616.9531 L749,606.9531 " fill="#FEFFDD" style="stroke:#181818;stroke-width:0.5;"/><text fill="#000000" font-family="sans-serif" font-size="13" lengthAdjust="spacing" textLength="138" x="606" y="624.02">Dependency Injection</text><polygon fill="#181818" points="2074,672.3516,2084,676.3516,2074,680.3516,2078,676.3516" style="stroke:#181818;stroke-width:1.0;"/><line style="stroke:#181818;stroke-width:1.0;" x1="774" x2="2080" y1="676.3516" y2="676.3516"/><text fill="#000000" font-family="sans-serif" font-size="13" lengthAdjust="spacing" textLength="301" x="781" y="671.2856">setRepositories(repository, positionRepository)</text><path d="M2091,642.0859 L2091,697.0859 L2376,697.0859 L2376,652.0859 L2366,642.0859 L2091,642.0859 " fill="#FEFFDD" style="stroke:#181818;stroke-width:0.5;"/><path d="M2366,642.0859 L2366,652.0859 L2376,652.0859 L2366,642.0859 " fill="#FEFFDD" style="stroke:#181818;stroke-width:0.5;"/><text fill="#000000" font-family="sans-serif" font-size="13" lengthAdjust="spacing" textLength="59" x="2097" y="659.1528">Singleton</text><text fill="#000000" font-family="sans-serif" font-size="13" lengthAdjust="spacing" textLength="264" x="2097" y="674.2856">Use a factory to create a use case object</text><text fill="#000000" font-family="sans-serif" font-size="13" lengthAdjust="spacing" textLength="242" x="2097" y="689.4185">by using the singleton design pattern.</text><polygon fill="#181818" points="2069,719.6172,2079,723.6172,2069,727.6172,2073,723.6172" style="stroke:#181818;stroke-width:1.0;"/><line style="stroke:#181818;stroke-width:1.0;" x1="774" x2="2075" y1="723.6172" y2="723.6172"/><text fill="#000000" font-family="sans-serif" font-size="13" lengthAdjust="spacing" textLength="111" x="781" y="718.5513">execute(request)</text><line style="stroke:#181818;stroke-width:1.0;" x1="2091" x2="2133" y1="756.8164" y2="756.8164"/><line style="stroke:#181818;stroke-width:1.0;" x1="2133" x2="2133" y1="756.8164" y2="769.8164"/><line style="stroke:#181818;stroke-width:1.0;" x1="2092" x2="2133" y1="769.8164" y2="769.8164"/><polygon fill="#181818" points="2102,765.8164,2092,769.8164,2102,773.8164,2098,769.8164" style="stroke:#181818;stroke-width:1.0;"/><text fill="#000000" font-family="sans-serif" font-size="13" lengthAdjust="spacing" textLength="110" x="2098" y="751.7505">validate(request)</text><path d="M2220,736.6172 L2220,776.6172 L2539,776.6172 L2539,746.6172 L2529,736.6172 L2220,736.6172 " fill="#FEFFDD" style="stroke:#181818;stroke-width:0.5;"/><path d="M2529,736.6172 L2529,746.6172 L2539,746.6172 L2529,736.6172 " fill="#FEFFDD" style="stroke:#181818;stroke-width:0.5;"/><text fill="#000000" font-family="sans-serif" font-size="13" lengthAdjust="spacing" textLength="260" x="2226" y="753.6841">Input validation, and business validation.</text><text fill="#000000" font-family="sans-serif" font-size="13" lengthAdjust="spacing" textLength="298" x="2226" y="768.8169">Can you see it? Can you use it? Can you do it?</text><polygon fill="#181818" points="1771,799.0156,1761,803.0156,1771,807.0156,1767,803.0156" style="stroke:#181818;stroke-width:1.0;"/><line style="stroke:#181818;stroke-width:1.0;" x1="1765" x2="2080" y1="803.0156" y2="803.0156"/><text fill="#000000" font-family="sans-serif" font-size="13" lengthAdjust="spacing" textLength="137" x="1777" y="797.9497">district = getDistrict()</text><polygon fill="#181818" points="1771,828.1484,1761,832.1484,1771,836.1484,1767,832.1484" style="stroke:#181818;stroke-width:1.0;"/><line style="stroke:#181818;stroke-width:1.0;" x1="1765" x2="2080" y1="832.1484" y2="832.1484"/><text fill="#000000" font-family="sans-serif" font-size="13" lengthAdjust="spacing" textLength="135" x="1777" y="827.0825">payroll = getPayroll()</text><polygon fill="#181818" points="1771,857.2813,1761,861.2813,1771,865.2813,1767,861.2813" style="stroke:#181818;stroke-width:1.0;"/><line style="stroke:#181818;stroke-width:1.0;" x1="1765" x2="2080" y1="861.2813" y2="861.2813"/><text fill="#000000" font-family="sans-serif" font-size="13" lengthAdjust="spacing" textLength="177" x="1777" y="856.2153">employee = getEmployee()</text><polygon fill="#181818" points="2938,919.6797,2948,923.6797,2938,927.6797,2942,923.6797" style="stroke:#181818;stroke-width:1.0;"/><line style="stroke:#181818;stroke-width:1.0;" x1="2091" x2="2944" y1="923.6797" y2="923.6797"/><text fill="#000000" font-family="sans-serif" font-size="13" lengthAdjust="spacing" textLength="158" x="2098" y="918.6138">loadPositions(employee)</text><path d="M1640,874.2813 L1640,959.2813 L2076,959.2813 L2076,884.2813 L2066,874.2813 L1640,874.2813 " fill="#FEFFDD" style="stroke:#181818;stroke-width:0.5;"/><path d="M2066,874.2813 L2066,884.2813 L2076,884.2813 L2066,874.2813 " fill="#FEFFDD" style="stroke:#181818;stroke-width:0.5;"/><text fill="#000000" font-family="sans-serif" font-size="13" lengthAdjust="spacing" textLength="415" x="1646" y="891.3481">In order to avoid developer changing employee's property value,</text><text fill="#000000" font-family="sans-serif" font-size="13" lengthAdjust="spacing" textLength="254" x="1646" y="906.481">1. make the Employee class immutable</text><text fill="#000000" font-family="sans-serif" font-size="13" lengthAdjust="spacing" textLength="224" x="1646" y="921.6138">2. use interface as parameter type</text><text fill="#000000" font-family="sans-serif" font-size="13" lengthAdjust="spacing" textLength="395" x="1646" y="936.7466">3. write unit tests to make sure the argument is not changed.</text><text fill="#000000" font-family="sans-serif" font-size="13" lengthAdjust="spacing" textLength="343" x="1646" y="951.8794">4. make development rules developers should follow.</text><polygon fill="#181818" points="2102,992.6445,2092,996.6445,2102,1000.6445,2098,996.6445" style="stroke:#181818;stroke-width:1.0;"/><line style="stroke:#181818;stroke-width:1.0;" x1="2096" x2="2954" y1="996.6445" y2="996.6445"/><text fill="#000000" font-family="sans-serif" font-size="13" lengthAdjust="spacing" textLength="193" x="2108" y="991.5786">Collection&lt;Position&gt; positions</text><path d="M1721,969.9453 L1721,1009.9453 L2076,1009.9453 L2076,979.9453 L2066,969.9453 L1721,969.9453 " fill="#FEFFDD" style="stroke:#181818;stroke-width:0.5;"/><path d="M2066,969.9453 L2066,979.9453 L2076,979.9453 L2066,969.9453 " fill="#FEFFDD" style="stroke:#181818;stroke-width:0.5;"/><text fill="#000000" font-family="sans-serif" font-size="13" lengthAdjust="spacing" textLength="227" x="1731" y="987.0122">Data Mapping, use rich constructor.</text><text fill="#000000" font-family="sans-serif" font-size="13" lengthAdjust="spacing" textLength="334" x="1727" y="1002.145">Converts relational database data record to objects.</text><polygon fill="#181818" points="2630,1032.3438,2640,1036.3438,2630,1040.3438,2634,1036.3438" style="stroke:#181818;stroke-width:1.0;"/><line style="stroke:#181818;stroke-width:1.0;" x1="2091" x2="2636" y1="1036.3438" y2="1036.3438"/><text fill="#000000" font-family="sans-serif" font-size="13" lengthAdjust="spacing" textLength="284" x="2098" y="1031.2778">loadAdjustments(district, employee, payroll)</text><polygon fill="#181818" points="2102,1072.043,2092,1076.043,2102,1080.043,2098,1076.043" style="stroke:#181818;stroke-width:1.0;"/><line style="stroke:#181818;stroke-width:1.0;" x1="2096" x2="2646" y1="1076.043" y2="1076.043"/><text fill="#000000" font-family="sans-serif" font-size="13" lengthAdjust="spacing" textLength="327" x="2108" y="1070.9771">Collection&lt;PayrollAdjustment&gt; payrollAdjustments</text><path d="M1721,1049.3438 L1721,1089.3438 L2076,1089.3438 L2076,1059.3438 L2066,1049.3438 L1721,1049.3438 " fill="#FEFFDD" style="stroke:#181818;stroke-width:0.5;"/><path d="M2066,1049.3438 L2066,1059.3438 L2076,1059.3438 L2066,1049.3438 " fill="#FEFFDD" style="stroke:#181818;stroke-width:0.5;"/><text fill="#000000" font-family="sans-serif" font-size="13" lengthAdjust="spacing" textLength="227" x="1739" y="1066.4106">Data Mapping, use rich constructor.</text><text fill="#000000" font-family="sans-serif" font-size="13" lengthAdjust="spacing" textLength="334" x="1727" y="1081.5435">Converts relational database data record to objects.</text><polygon fill="#181818" points="785,1111.7422,775,1115.7422,785,1119.7422,781,1115.7422" style="stroke:#181818;stroke-width:1.0;"/><line style="stroke:#181818;stroke-width:1.0;" x1="779" x2="2085" y1="1115.7422" y2="1115.7422"/><text fill="#000000" font-family="sans-serif" font-size="13" lengthAdjust="spacing" textLength="327" x="791" y="1110.6763">Collection&lt;PayrollAdjustment&gt; payrollAdjustments</text><polygon fill="#181818" points="424,1140.875,414,1144.875,424,1148.875,420,1144.875" style="stroke:#181818;stroke-width:1.0;"/><line style="stroke:#181818;stroke-width:1.0;" x1="418" x2="768" y1="1144.875" y2="1144.875"/><text fill="#000000" font-family="sans-serif" font-size="13" lengthAdjust="spacing" textLength="327" x="430" y="1139.8091">Collection&lt;PayrollAdjustment&gt; payrollAdjustments</text><polygon fill="#181818" points="43,1170.0078,33,1174.0078,43,1178.0078,39,1174.0078" style="stroke:#181818;stroke-width:1.0;"/><line style="stroke:#181818;stroke-width:1.0;" x1="37" x2="407" y1="1174.0078" y2="1174.0078"/><text fill="#000000" font-family="sans-serif" font-size="13" lengthAdjust="spacing" textLength="327" x="49" y="1168.9419">Collection&lt;PayrollAdjustment&gt; payrollAdjustments</text><!--MD5=[f537c56f8ece4c1d7a53a68dbeaf7bc9]
@startuml
box "Client" #FDFD96
actor actor as "Payroll"
end box

box "Framework" #A7C7E7
    control controller as "EnterPayrollAdjustmentsController"
    control service as "EnterPayrollAdjustmentsService"
    control repositoryService as "LoadEmployeePositionAdjustmentsService"
    control positionRepositoryService as "LoadEmployeePositionsService"
end box
box "Kernel" #FFC0CB
    control request as "FindEmployeePositionAdjustmentsRequest"
    boundary useCase as "FindEmployeePositionAdjustmentsUseCase"
    entity district as "District"
    entity payroll as "payroll"
    entity employee as "Employee"
    boundary repository as "LoadEmployeePositionAdjustmentsRepository"
    boundary positionRepository as "LoadEmployeePositionsRepository"
end box

actor -> controller : findEmployeePayrollAdjustments(\n\tEnterPayrollAdjustmentsFindCommand command\n)
activate controller
    note right
      Command: data binding
      The command class may inherit the request class
      to avoid data mapping between layers and to develop
      application quickly, and it also includes the UI information.
    end note
    controller -> service: findEmployeePayrollAdjustments(command)
    activate service
        note right
          Service: transaction management
        end note
        service -> request: request = new FindEmployeePositionAdjustmentsRequest(\ncountyNbr, districtNbr,\n fiscalYear, payrollCyle, payrollType,\n employeeNbr)
            note right
               Data Mapping, use rich constructor.
               Making the request class immutable, once constructed successfully,
               we can be sure that the state is valid and cannot be changed to 
               something invalid.
            end note
        activate request
            request -> district: district = new District(countyNbr, districtNbr) 
            request -> request: setDistrict(district)
            request -> payroll: payroll = new Payroll(fiscalYear, payrollCyle, payrollType)
            request -> request: setPayroll(payroll)
            request -> employee: employee = new Employee(employeeNbr)
            request -> request: setEmployee(employee)
        deactivate request
            service -> repositoryService: repository = new LoadEmployeePositionAdjustmentsService()
            note right
                LoadEmployeePositionAdjustmentsService implements
                LoadEmployeePositionAdjustmentsRepository;
                LoadEmployeePositionsService implements
                LoadEmployeePositionsRepository
            end note
            service -> positionRepositoryService: positionRepository = new LoadEmployeePositionsService()
            note left
                Dependency Injection
            end note
            service -> useCase : setRepositories(repository, positionRepository)
            note right
                Singleton
                Use a factory to create a use case object
                by using the singleton design pattern.
            end note
            service -> useCase : execute(request)
        activate useCase
            useCase -> useCase : validate(request)
            note right
                Input validation, and business validation.
                Can you see it? Can you use it? Can you do it?
            end note
            useCase -> request: district = getDistrict()
            useCase -> request: payroll = getPayroll()
            useCase -> request: employee = getEmployee()
            useCase -> positionRepository: loadPositions(employee)
            note left
               In order to avoid developer changing employee's property value,
               1. make the Employee class immutable
               2. use interface as parameter type
               3. write unit tests to make sure the argument is not changed.
               4. make development rules developers should follow.
            end note
            activate positionRepository
            useCase <- positionRepository: Collection<Position> positions
            note left
               Data Mapping, use rich constructor.
              Converts relational database data record to objects.
            end note
            deactivate positionRepository
            useCase -> repository: loadAdjustments(district, employee, payroll)
            activate repository
            useCase <- repository: Collection<PayrollAdjustment> payrollAdjustments
            note left
               Data Mapping, use rich constructor.
	           Converts relational database data record to objects.
            end note
            deactivate repository
            service <- useCase : Collection<PayrollAdjustment> payrollAdjustments
        deactivate useCase
    controller <- service: Collection<PayrollAdjustment> payrollAdjustments
    deactivate service
actor <- controller : Collection<PayrollAdjustment> payrollAdjustments
deactivate controller
@enduml

PlantUML version 1.2022.7beta1(Unknown compile time)
(GPL source distribution)
Java Runtime: Java(TM) SE Runtime Environment
JVM: Java HotSpot(TM) 64-Bit Server VM
Default Encoding: UTF-8
Language: en
Country: US
--></g></svg>